<svg width="25" height="25" viewBox="0 0 25 25" fill="none" xmlns="http://www.w3.org/2000/svg">
    <path fill-rule="evenodd" clip-rule="evenodd" d="M7.03262 11.7811L7.03262 11.7811C7.10414 11.413 7.17534 11.0464 7.24914 10.6941C7.47928 9.59539 7.7495 8.54489 8.16341 7.62732C8.57394 6.71726 9.10778 5.97912 9.84362 5.46317C10.5724 4.95215 11.5775 4.60419 13.0296 4.60419C14.4874 4.60419 15.4461 4.94745 16.1081 5.43415C16.7752 5.92465 17.2365 6.63102 17.5716 7.52533C17.9104 8.42945 18.1006 9.47168 18.2563 10.5811C18.2979 10.8773 18.3374 11.1826 18.3773 11.4909L18.3773 11.491L18.3773 11.4911C18.4812 12.2942 18.5877 13.1174 18.7397 13.8495C18.8455 14.3591 19.0573 14.8332 19.2765 15.2533C19.4199 15.5284 19.5904 15.8228 19.7502 16.0989L19.7503 16.0991C19.8262 16.2302 19.8997 16.3572 19.9668 16.476C20.2124 16.911 20.4138 17.3087 20.5474 17.6924H4.77354C4.90183 17.3068 5.09649 16.9106 5.33475 16.4804C5.4084 16.3474 5.48954 16.2065 5.57437 16.0592L5.57439 16.0592C5.94346 15.4183 6.38251 14.6558 6.57971 13.896C6.74709 13.251 6.89046 12.5129 7.03262 11.7811ZM13.0296 2.66669C11.2514 2.66669 9.8403 3.09918 8.7313 3.87678C7.62932 4.64945 6.90368 5.70807 6.39729 6.83062C5.8943 7.94566 5.59018 9.16361 5.3528 10.2969C5.26472 10.7174 5.18727 11.1171 5.11328 11.499C4.97977 12.188 4.85752 12.819 4.70434 13.4092C4.57917 13.8916 4.31315 14.3571 3.96262 14.9705C3.8616 15.1473 3.75357 15.3364 3.63987 15.5416C3.17696 16.3774 2.66667 17.4259 2.66667 18.6612V19.6299H3.63542H21.6949H22.6636V18.6612C22.6636 17.4161 22.1223 16.353 21.6539 15.5234C21.5631 15.3626 21.4777 15.2153 21.3966 15.0753L21.3965 15.0751C21.2509 14.824 21.1191 14.5965 20.9943 14.3573C20.8076 13.9992 20.6894 13.7089 20.6368 13.4557C20.5007 12.8001 20.4091 12.0923 20.3093 11.3208C20.2673 10.9961 20.2239 10.66 20.175 10.3119C20.0159 9.17846 19.8033 7.95949 19.3859 6.84552C18.9648 5.72174 18.3166 4.65312 17.2558 3.87315C16.1898 3.08938 14.8019 2.66669 13.0296 2.66669ZM15.675 19.6629C15.675 21.3226 14.3275 22.6681 12.6651 22.6681C11.0028 22.6681 9.65523 21.3226 9.65523 19.6629L11.6618 19.6629C11.6618 20.2161 12.111 20.6646 12.6651 20.6646C13.2192 20.6646 13.6684 20.2161 13.6684 19.6629L15.675 19.6629Z" fill="#616161" />
</svg>
    