<svg width="25" height="25" viewBox="0 0 25 25" fill="none" xmlns="http://www.w3.org/2000/svg">
    <path fill-rule="evenodd" clip-rule="evenodd" d="M18.9389 3.21034C18.1688 2.47319 16.9506 2.48743 16.1979 3.24238L2.77982 16.7014C2.41385 17.0685 2.20834 17.5657 2.20834 18.0841V20.7075C2.20834 21.789 3.08512 22.6658 4.16668 22.6658H6.77256C7.29326 22.6658 7.79252 22.4584 8.15999 22.0895L21.6381 8.55895C22.4122 7.78188 22.3972 6.52065 21.6049 5.76222L18.9389 3.21034ZM17.5848 4.62502L20.2507 7.17689L18.2396 9.19585L15.6044 6.61141L17.5848 4.62502ZM14.2217 7.99832L4.16668 18.0841V20.7075H6.77256L16.8575 10.5833L14.2217 7.99832Z" fill="#616161" />
</svg>
    