<svg width="24" height="24" viewBox="0 0 24 24" fill="none" xmlns="http://www.w3.org/2000/svg">
    <path d="M2.73098 11.1756L1.91962 11.7238L2.73098 11.1756ZM2.70842 11.1397L1.86451 11.6363L2.70842 11.1397ZM21.3094 11.136L20.463 10.6438L21.3094 11.136ZM21.2828 11.1784L22.0915 11.7305L21.2828 11.1784ZM11.4399 4.69953L12.003 3.89845L11.4399 4.69953ZM12.6221 20.209L11.9854 19.4651L12.6221 20.209ZM11.459 20.2131L10.8275 20.9614L11.459 20.2131ZM13.2105 5.48831C15.7423 3.67197 18.0745 4.12689 19.5007 5.37228C20.9797 6.66372 21.5315 8.80668 20.463 10.6438L22.1558 11.6283C23.763 8.86506 22.869 5.71365 20.7888 3.89717C18.6558 2.03463 15.3154 1.56807 12.069 3.89712L13.2105 5.48831ZM20.4742 10.6262C20.3137 10.8613 17.7919 14.496 11.9854 19.4651L13.2587 20.9529C19.2115 15.8587 21.8457 12.0905 22.0915 11.7305L20.4742 10.6262ZM12.0904 19.4647C6.18187 14.4792 3.68446 10.8379 3.54235 10.6275L1.91962 11.7238C2.15133 12.0667 4.7665 15.8473 10.8275 20.9614L12.0904 19.4647ZM3.55232 10.6431C2.46789 8.80023 3.00779 6.65816 4.48274 5.37119C5.90632 4.12905 8.26622 3.66566 10.8769 5.50061L12.003 3.89845C8.69526 1.57354 5.335 2.02855 3.19522 3.89561C1.1068 5.71785 0.240129 8.87579 1.86451 11.6363L3.55232 10.6431ZM3.54235 10.6275C3.54462 10.6309 3.54701 10.6345 3.54926 10.6381C3.5514 10.6415 3.55257 10.6435 3.55232 10.6431L1.86451 11.6363C1.87985 11.6623 1.89758 11.6911 1.91962 11.7238L3.54235 10.6275ZM20.463 10.6438C20.4625 10.6446 20.4638 10.6423 20.4663 10.6382C20.469 10.634 20.4717 10.6298 20.4742 10.6262L22.0915 11.7305C22.1174 11.6925 22.1379 11.659 22.1558 11.6283L20.463 10.6438ZM12.069 3.89712C12.0612 3.90272 12.0496 3.90725 12.0348 3.90734C12.0202 3.90743 12.0096 3.90312 12.003 3.89845L10.8769 5.50061C11.5778 5.99326 12.5176 5.98546 13.2105 5.48831L12.069 3.89712ZM11.9854 19.4651C12.0157 19.4392 12.06 19.4391 12.0904 19.4647L10.8275 20.9614C11.5305 21.5546 12.5599 21.551 13.2587 20.9529L11.9854 19.4651Z" fill="#E94C89" />
</svg>
    