<svg width="24" height="24" viewBox="0 0 24 24" fill="none" xmlns="http://www.w3.org/2000/svg">
    <g clip-path="url(#clip0_301_842)">
        <path fill-rule="evenodd" clip-rule="evenodd" d="M12 2.23999C6.48127 2.23999 2 6.71513 2 12.24C2 16.6599 4.86679 20.4045 8.83855 21.7305C9.33579 21.8226 9.51995 21.5156 9.51995 21.2455C9.51995 21.0061 9.51381 20.38 9.50767 19.5451C6.72683 20.1467 6.1375 18.2068 6.1375 18.2068C5.68324 17.0528 5.02639 16.7458 5.02639 16.7458C4.11786 16.1258 5.09392 16.1381 5.09392 16.1381C6.09453 16.2118 6.6286 17.1694 6.6286 17.1694C7.51872 18.6979 8.96747 18.256 9.53837 17.9981C9.63045 17.3536 9.88828 16.9116 10.1707 16.6599C7.94844 16.4082 5.61572 15.5488 5.61572 11.7182C5.61572 10.6255 6.00245 9.73539 6.64702 9.03557C6.54266 8.78389 6.19889 7.76486 6.74524 6.38978C6.74524 6.38978 7.58625 6.11967 9.49539 7.41495C10.2934 7.19395 11.1467 7.08346 12 7.07732C12.8471 7.07732 13.7066 7.19395 14.5046 7.41495C16.4138 6.11967 17.2548 6.38978 17.2548 6.38978C17.8011 7.76486 17.4573 8.78389 17.353 9.03557C17.9914 9.73539 18.3781 10.6255 18.3781 11.7182C18.3781 15.5611 16.0393 16.4021 13.8109 16.6537C14.167 16.9607 14.4923 17.5746 14.4923 18.5076C14.4923 19.8459 14.48 20.9202 14.48 21.2517C14.48 21.5218 14.6581 21.8287 15.1676 21.7305C19.1394 20.4045 22 16.6599 22 12.2461C22 6.72127 17.5249 2.24613 12 2.24613V2.23999Z" fill="#616161" />
    </g>
    <defs>
        <clipPath id="clip0_301_842">
            <rect width="20" height="19.9992" fill="white" transform="translate(2 2)" />
        </clipPath>
    </defs>
</svg>
    