<svg width="24" height="24" viewBox="0 0 24 24" fill="none" xmlns="http://www.w3.org/2000/svg">
    <path fill-rule="evenodd" clip-rule="evenodd" d="M22 12C22 17.5228 17.5228 22 12 22C6.47715 22 2 17.5228 2 12C2 6.47715 6.47715 2 12 2C17.5228 2 22 6.47715 22 12ZM18.2454 17C17.4167 18.0337 16.3368 18.8572 15.0981 19.378C15.6215 18.7591 16.1193 18.0318 16.5484 17.2294C16.5889 17.1538 16.6289 17.0773 16.6682 17H18.2454ZM19.4185 15C19.6738 14.3693 19.851 13.6986 19.9381 13H17.9173C17.8311 13.692 17.6809 14.3617 17.483 15H19.4185ZM15.3693 15C15.6088 14.3654 15.7925 13.6937 15.8983 13H13V15H15.3693ZM13 17H14.3676C13.929 17.6888 13.4521 18.2638 13 18.6967V17ZM11 15V13H8.02866C8.08876 13.7126 8.23972 14.3809 8.44684 15H11ZM9.37089 17H11V19.2382C10.5764 18.7314 9.94518 17.9726 9.37089 17ZM6.36 15C6.19086 14.3728 6.07095 13.7049 6.02308 13H4.06189C4.14901 13.6986 4.32622 14.3693 4.58152 15H6.36ZM5.75463 17H7.10616C7.50171 17.8275 7.95365 18.5435 8.37411 19.133C7.35578 18.6144 6.4633 17.884 5.75463 17ZM19.9381 11C19.851 10.3014 19.6738 9.6307 19.4185 9H17.64C17.8091 9.62717 17.9291 10.2951 17.9769 11H19.9381ZM15.6259 4.86696C16.6442 5.38563 17.5367 6.11597 18.2454 7H16.8938C16.4983 6.17252 16.0464 5.45645 15.6259 4.86696ZM13 4.76178C13.4236 5.26864 14.0548 6.02738 14.6291 7H13V4.76178ZM13 11V9H15.5532C15.7603 9.61907 15.9112 10.2874 15.9713 11H13ZM11 11V9H8.63075C8.39124 9.63457 8.2075 10.3063 8.10168 11H11ZM11 5.30329V7H9.63237C10.071 6.31122 10.5479 5.73622 11 5.30329ZM7.45155 6.77056C7.41108 6.84623 7.37113 6.92272 7.33175 7H5.75463C6.58327 5.96631 7.66323 5.14276 8.90185 4.62201C8.37845 5.24087 7.88071 5.96824 7.45155 6.77056ZM4.06189 11C4.14901 10.3014 4.32622 9.6307 4.58152 9H6.517C6.31908 9.63829 6.1689 10.308 6.08269 11H4.06189Z" fill="#616161" />
</svg>
    