<svg width="25" height="25" viewBox="0 0 25 25" fill="none" xmlns="http://www.w3.org/2000/svg">
    <path fill-rule="evenodd" clip-rule="evenodd" d="M15.8431 16.9865C14.4885 18.0396 12.7862 18.6667 10.9375 18.6667C6.51922 18.6667 2.9375 15.085 2.9375 10.6667C2.9375 6.24841 6.51922 2.66669 10.9375 2.66669C15.3558 2.66669 18.9375 6.24841 18.9375 10.6667C18.9375 12.5154 18.3104 14.2176 17.2574 15.5723L22.6446 20.9596C23.0351 21.3501 23.0351 21.9833 22.6446 22.3738C22.2541 22.7643 21.6209 22.7643 21.2304 22.3738L15.8431 16.9865ZM16.9375 10.6667C16.9375 13.9804 14.2512 16.6667 10.9375 16.6667C7.62379 16.6667 4.9375 13.9804 4.9375 10.6667C4.9375 7.35298 7.62379 4.66669 10.9375 4.66669C14.2512 4.66669 16.9375 7.35298 16.9375 10.6667Z" fill="#616161" />
</svg>
    